<?xml version="1.0" encoding="utf-8"?>
<!-- Generator: Adobe Illustrator 16.0.0, SVG Export Plug-In . SVG Version: 6.00 Build 0)  -->
<!DOCTYPE svg PUBLIC "-//W3C//DTD SVG 1.1//EN" "http://www.w3.org/Graphics/SVG/1.1/DTD/svg11.dtd">
<svg version="1.1" id="Capa_1" xmlns="http://www.w3.org/2000/svg" xmlns:xlink="http://www.w3.org/1999/xlink" x="0px" y="0px"
	 width="4535.43px" height="1417.32px" viewBox="0 0 4535.43 1417.32" enable-background="new 0 0 4535.43 1417.32"
	 xml:space="preserve">
<g>
	<path fill="#FFFFFF" d="M2971.162,789.648l-25.222-367.855c-1.637-23.827-12.473-45.572-30.508-61.227
		c-18.039-15.654-41.092-23.321-64.909-21.582c-46.817,3.41-83.128,42.854-82.664,89.79l2.978,299.882l-129.902,166.371
		c-20.738,26.557-55.143,37.22-86.353,29.223l141.337-183.542c24.809-32.217,20.686-78.889-9.382-106.253
		c-16.052-14.611-36.81-21.831-58.476-20.314c-21.654,1.514-41.217,11.542-55.086,28.242L2359.459,899.52
		c-35.214,42.41-54.309,96.119-53.775,151.239l3.315,341.478c0.132,13.611,11.193,24.576,24.805,24.597l355.525,0.483
		c0.01,0,0.023,0,0.033,0c6.954,0,13.591-2.915,18.293-8.038c4.713-5.133,7.055-12.005,6.448-18.949l-14.512-167.148
		l236.016-313.666C2961.479,875.14,2974.103,832.568,2971.162,789.648z M2895.917,879.654l-241.735,321.269
		c-3.683,4.896-5.428,10.979-4.897,17.082l12.988,149.604l-303.836-0.414l-3.077-316.914c-0.424-43.38,14.608-85.647,42.32-119.023
		l213.516-257.141c5.117-6.163,12.337-9.862,20.324-10.419c7.991-0.569,15.657,2.103,21.583,7.498
		c11.098,10.098,12.617,27.321,3.46,39.207l-160.39,208.283c-4.205,5.461-5.951,12.423-4.821,19.222
		c1.129,6.799,5.034,12.823,10.776,16.631c57.398,38.068,135.574,25.358,177.961-28.935l135.247-173.219
		c3.464-4.431,5.315-9.908,5.263-15.531l-3.063-308.566c-0.208-20.78,15.87-38.243,36.598-39.757
		c10.591-0.762,20.755,2.626,28.739,9.555c7.988,6.932,12.783,16.559,13.508,27.109l25.223,367.855
		C2923.726,824.056,2914.608,854.812,2895.917,879.654z"/>
	<path fill="#FFFFFF" d="M1962.454,642.383c-13.869-16.7-33.432-26.731-55.087-28.242c-21.642-1.51-42.419,5.703-58.468,20.314
		c-30.074,27.368-34.197,74.04-9.389,106.256l141.34,183.542c-31.189,7.987-65.617-2.663-86.355-29.223l-129.902-166.37
		l2.978-299.883c0.464-46.937-35.843-86.379-82.66-89.79c-23.785-1.726-46.864,5.925-64.909,21.582
		c-18.036,15.655-28.872,37.399-30.508,61.228l-25.226,367.852c-2.944,42.92,9.684,85.492,35.548,119.871l236.02,313.665
		l-14.512,167.148c-0.606,6.941,1.734,13.816,6.447,18.95c4.706,5.123,11.343,8.037,18.294,8.037c0.01,0,0.023,0,0.033,0
		l355.525-0.483c13.611-0.021,24.673-10.985,24.805-24.597l3.318-341.477c0.533-55.117-18.562-108.826-53.775-151.236
		L1962.454,642.383z M2176.994,1367.194l-303.833,0.414l12.988-149.604c0.529-6.104-1.212-12.187-4.898-17.082l-241.738-321.269
		c-18.691-24.838-27.809-55.598-25.686-86.604l25.226-367.855c0.726-10.551,5.521-20.178,13.509-27.109
		c7.242-6.286,16.313-9.66,25.805-9.66c0.974,0,1.95,0.036,2.934,0.105c20.729,1.511,36.8,18.973,36.595,39.757l-3.063,308.566
		c-0.057,5.623,1.799,11.101,5.263,15.531l135.247,173.219c42.393,54.293,120.563,66.996,177.965,28.938
		c5.742-3.809,9.646-9.833,10.775-16.632c1.13-6.799-0.619-13.764-4.821-19.225l-160.393-208.28
		c-9.153-11.889-7.634-29.109,3.467-39.21c5.925-5.395,13.581-8.048,21.576-7.498c7.991,0.557,15.211,4.259,20.327,10.422
		l213.516,257.142c27.713,33.379,42.744,75.646,42.32,119.022L2176.994,1367.194z"/>
	<path fill="#FFFFFF" d="M2754.278,279.489c0-74.653-29.074-144.838-81.862-197.627C2619.628,29.07,2549.445,0,2474.79,0
		c-74.652,0-144.838,29.07-197.63,81.859l-9.445,9.448l-9.448-9.448C2205.481,29.07,2135.296,0,2060.64,0
		c-74.652,0-144.837,29.07-197.629,81.859c-108.969,108.972-108.969,286.281,0.003,395.256l387.136,387.136
		c4.852,4.849,11.211,7.276,17.565,7.276c6.355,0,12.714-2.425,17.565-7.276l387.136-387.139
		C2725.204,424.327,2754.278,354.141,2754.278,279.489z M2267.718,811.565l-369.576-369.577c-89.605-89.605-89.605-235.4,0-325.005
		c43.402-43.403,101.116-67.308,162.498-67.308c61.387,0,119.096,23.904,162.503,67.311l27.011,27.011
		c4.656,4.659,10.971,7.275,17.562,7.275s12.905-2.619,17.565-7.275l27.007-27.011c43.407-43.406,101.12-67.311,162.503-67.311
		c61.386,0,119.096,23.904,162.498,67.311c43.407,43.407,67.314,101.116,67.314,162.503c0,61.386-23.907,119.096-67.314,162.502
		L2267.718,811.565z"/>
</g>
</svg>
